<svg xmlns="http://www.w3.org/2000/svg" viewBox="0 0 512.002 512.002">
    <g fill="#b4cbdc">
        <path d="M198.195 305.55c-20.129 22.194-49.548 33.032-49.548 33.032l-33.032-41.29 16.516-8.258 66.064 16.516zM242.237 319.313c-32 8.258-18.168 35.785-18.168 35.785s30.108-5.592 34.408-34.408l-16.24-1.377z"/>
    </g>
    <g fill="#7da0be">
        <path d="M132.13 222.969l-8.258-16.516s12.812-5.016 24.774 0c10.666 4.473 16.516 16.516 16.516 16.516H132.13zM313.808 200.259s-23.226-24.387-49.548-43.355c0 0-16.516 16.516-49.548 30.968l24.774 18.581 74.322-6.194z"/>
    </g>
    <path d="M512.001 239.485c-20.645 6.194-33.032 33.032-33.032 33.032h33.032c-19.269 15.828-88.086 49.548-165.162 49.548s-147.269 5.505-222.968-33.032C66.239 259.693 67.097 322.066 0 322.066c0 0 16.516-42.323 16.516-66.065 0-23.742-16.515-66.065-16.515-66.065 67.097 0 65.032 59.871 123.871 33.032s203.355-33.032 231.226-33.032 130.065 36.13 156.903 49.549z" fill="#ebf5fa"/>
    <g fill="#cfe0eb">
        <path d="M478.97 272.517s12.387-26.839 33.032-33.032c-13.137-6.568-44.329-18.567-76.019-29.117-41.552 50.048-28.587 84.728-16.667 102.393 44.78-11.157 79.815-29.671 92.686-40.244H478.97z"/>
        <path d="M84.211 273.429c-10.629 0-19.96-.508-27.661-1.694l2.517-16.322c28.976 4.459 85.847-1.637 146.048-8.065 87.129-9.322 177.234-18.96 213.549-.798l-7.387 14.774c-31.976-15.992-123.588-6.185-204.403 2.443-46.139 4.935-90.357 9.662-122.663 9.662z"/>
    </g>
    <path d="M396.389 280.775h-57.807c-29.936 0 16.516 24.774 24.774 24.774 5.885 0 49.548-8.258 49.548-8.258l-16.515-16.516z" fill="#b4cbdc"/>
    <path d="M355.099 189.936c-27.871 0-172.387 6.194-231.226 33.032S67.098 189.936.001 189.936c0 0 16.516 42.323 16.516 66.065 0 .853-.065 1.779-.107 2.678 103.16 17.238 157.011-30.804 322.173-30.804 29.356 0 49.937 5.721 71.559 15.079-10.72 14.989-13.401 26.992-13.592 27.941a8.43 8.43 0 0 0-.161 1.621c0 17.914 8.236 31.745 18.244 41.413 6.853-1.601 13.433-3.408 19.816-5.316-9.504-6.083-21.143-17.605-21.537-35.177.683-2.587 3.737-12.055 12.533-23.479 3.959 1.918 8.019 3.936 12.234 6.043 33.032 16.516 49.548-16.516 74.323-16.516-26.839-13.418-129.032-49.548-156.903-49.548z" fill="#96bee1"/>
    <circle cx="462.454" cy="247.743" r="8.258" fill="#464655"/>
    <path d="M82.537 283.945c-7.201-5.298-16.472-14.677-16.472-27.944 0-13.776 9.992-23.365 17.286-28.538-23.482-8.632-36.72-37.527-83.351-37.527 0 0 16.516 42.323 16.516 66.065C16.516 279.743 0 322.066 0 322.066c45.734 0 59.905-28.958 82.537-38.121z" fill="#7da0be"/>
</svg>
